<?xml version="1.0" standalone="no"?>
<!DOCTYPE svg PUBLIC "-//W3C//DTD SVG 20010904//EN"
 "http://www.w3.org/TR/2001/REC-SVG-20010904/DTD/svg10.dtd">
<svg version="1.0" xmlns="http://www.w3.org/2000/svg"
 width="648.000000pt" height="381.000000pt" viewBox="0 0 648.000000 381.000000"
 preserveAspectRatio="xMidYMid meet">

<g transform="translate(0.000000,381.000000) scale(0.100000,-0.100000)"
fill="#000000" stroke="none">
<path d="M1923 3479 c14 -9 17 -26 17 -117 0 -143 -4 -156 -44 -147 -17 3 -47
8 -66 11 -30 4 -29 3 10 -9 25 -8 52 -17 61 -21 12 -5 22 0 33 16 13 18 16 49
16 150 0 126 0 128 -22 128 -21 -1 -21 -2 -5 -11z"/>
<path d="M1808 3473 c17 -2 47 -2 65 0 17 2 3 4 -33 4 -36 0 -50 -2 -32 -4z"/>
<path d="M1625 3454 c-95 -17 -268 -75 -345 -115 -30 -15 -87 -50 -126 -76
-108 -73 -224 -155 -224 -159 0 -2 32 -4 70 -4 39 0 70 4 70 9 0 5 -20 6 -45
3 -29 -3 -45 -1 -45 6 0 16 254 189 325 222 98 45 243 89 360 109 61 11 94 19
75 19 -19 0 -71 -6 -115 -14z"/>
<path d="M2648 3453 c-9 -10 -23 -42 -33 -70 -30 -95 -83 -107 -186 -43 -135
85 -228 119 -326 120 l-52 0 -3 -107 c-2 -60 -2 -123 0 -140 3 -32 5 -33 50
-33 26 0 121 7 212 15 91 8 228 20 305 25 208 16 188 3 180 118 -9 117 -18
132 -85 132 -32 0 -52 -5 -62 -17z"/>
<path d="M4355 3458 c-11 -6 -21 -12 -23 -13 -2 -2 -18 -45 -36 -97 -18 -51
-48 -135 -66 -185 -18 -51 -32 -94 -29 -96 17 -14 258 -147 266 -147 6 0 13
89 18 231 l7 232 -39 37 c-44 44 -70 54 -98 38z"/>
<path d="M1620 3180 c-90 -31 -130 -40 -185 -40 -38 0 -75 -4 -82 -8 -6 -4 28
-6 75 -4 61 2 108 11 157 28 39 14 102 33 140 44 47 12 60 18 40 19 -16 0 -82
-17 -145 -39z"/>
<path d="M4593 3001 l2 -164 69 -43 c39 -24 72 -42 74 -40 3 4 -30 99 -119
336 l-28 75 2 -164z m97 -136 c16 -44 27 -81 25 -84 -3 -2 -30 12 -60 33 l-55
36 1 123 0 122 30 -75 c17 -41 43 -111 59 -155z"/>
<path d="M2720 3129 c-41 -5 -79 -11 -85 -14 -13 -7 153 5 171 12 12 4 14 -50
14 -329 0 -246 -3 -337 -12 -346 -18 -18 -73 -15 -91 6 -8 9 -18 44 -23 77
-13 108 -151 344 -286 487 l-53 57 30 5 c17 3 74 8 128 12 53 3 97 10 97 15 0
5 -10 7 -22 4 -21 -5 -227 -25 -255 -25 -7 0 19 -31 57 -70 140 -142 269 -356
294 -488 17 -88 27 -102 77 -102 70 0 69 -8 69 361 0 181 1 332 3 337 3 10
-28 11 -113 1z"/>
<path d="M1175 3120 c-26 -7 -23 -8 20 -8 28 -1 68 3 90 7 38 8 37 9 -20 9
-33 0 -73 -4 -90 -8z"/>
<path d="M1108 3113 c7 -3 16 -2 19 1 4 3 -2 6 -13 5 -11 0 -14 -3 -6 -6z"/>
<path d="M1055 2999 c-71 -3 -131 -7 -132 -8 -4 -2 248 -241 255 -241 4 0 24
33 44 73 21 40 61 98 89 130 l51 57 -89 -2 c-48 -1 -146 -5 -218 -9z"/>
<path d="M4125 2943 c-3 -14 -31 -90 -62 -167 l-55 -141 7 -130 c9 -173 5
-165 68 -163 l52 1 -50 6 -50 6 -8 135 -9 135 37 95 c20 52 48 127 63 165 14
39 27 72 28 74 2 1 29 -13 61 -32 32 -18 100 -58 150 -88 l93 -54 -6 -105 c-4
-58 -4 -103 -2 -100 3 3 8 52 12 110 l7 105 -88 49 c-48 28 -117 67 -152 88
-36 21 -70 38 -77 38 -6 0 -15 -12 -19 -27z"/>
<path d="M751 2933 c1 -17 3 -21 6 -10 2 9 6 17 9 17 2 0 82 -67 178 -150
l174 -149 -8 -38 c-4 -21 -20 -105 -35 -186 -24 -128 -31 -150 -49 -158 -20
-8 -19 -9 4 -6 24 2 26 8 63 197 l37 195 -37 33 c-21 19 -60 53 -87 75 -27 23
-70 60 -95 82 -83 72 -143 120 -152 123 -5 2 -8 -9 -8 -25z"/>
<path d="M743 2760 c0 -47 2 -66 4 -42 2 23 2 61 0 85 -2 23 -4 4 -4 -43z"/>
<path d="M637 2744 c-4 -4 -7 -14 -7 -23 0 -11 3 -12 11 -4 6 6 10 16 7 23 -2
6 -7 8 -11 4z"/>
<path d="M4559 2718 c-5 -22 -25 -365 -21 -372 2 -5 57 -6 121 -3 64 4 146 7
184 7 37 0 67 4 67 10 0 5 -21 56 -46 114 l-47 105 -120 68 c-127 72 -137 77
-138 71z"/>
<path d="M602 2653 c-24 -56 -55 -179 -71 -278 -6 -38 -14 -82 -17 -97 l-6
-28 61 0 61 0 0 225 c0 124 -2 225 -4 225 -2 0 -13 -21 -24 -47z"/>
<path d="M4250 2613 c-18 -49 -50 -130 -70 -180 -21 -51 -34 -93 -30 -93 9 0
24 37 75 175 55 149 64 168 78 156 27 -21 86 -158 93 -211 4 -30 11 -64 17
-75 10 -19 10 -19 17 0 9 23 1 43 -10 25 -4 -6 -10 17 -14 52 -9 77 -87 238
-115 238 -5 0 -23 -39 -41 -87z"/>
<path d="M730 2578 c0 -40 -3 -130 -7 -200 l-6 -128 144 2 144 2 -138 3 -138
4 7 194 c4 107 4 195 0 195 -3 0 -6 -33 -6 -72z"/>
<path d="M4433 2500 c0 -41 2 -58 4 -37 2 20 2 54 0 75 -2 20 -4 3 -4 -38z"/>
<path d="M3890 2370 c-25 -49 -25 -50 5 -50 23 0 25 4 25 45 0 25 -2 45 -5 45
-2 0 -14 -18 -25 -40z"/>
<path d="M4510 2202 l0 -44 83 7 c123 10 183 25 77 19 -47 -3 -100 -7 -117
-11 -31 -5 -33 -4 -33 26 0 23 6 34 23 41 21 8 20 9 -5 7 -26 -1 -28 -4 -28
-45z"/>
<path d="M4943 2236 c25 -20 15 -23 -91 -31 -51 -4 -91 -10 -88 -12 3 -3 48
-2 101 2 71 6 98 11 102 22 3 8 0 19 -8 24 -22 14 -36 10 -16 -5z"/>
<path d="M3835 2212 c-11 -8 -68 -123 -63 -127 2 -2 39 2 83 9 l80 11 3 53 3
52 -38 -2 c-37 -1 -37 -1 -5 -5 30 -4 32 -7 32 -43 0 -21 -4 -41 -9 -44 -5 -4
-37 -9 -70 -13 l-62 -6 21 48 c11 27 28 54 38 61 9 8 13 13 7 14 -5 0 -14 -4
-20 -8z"/>
<path d="M4040 2170 c0 -22 2 -40 5 -40 2 0 14 18 25 40 l20 40 -25 0 c-23 0
-25 -4 -25 -40z"/>
<path d="M477 2153 c-10 -9 -9 -393 1 -393 4 0 17 -3 30 -6 14 -4 22 -2 22 6
0 7 -6 10 -14 7 -32 -13 -37 18 -34 207 2 102 3 186 2 186 0 0 -4 -3 -7 -7z"/>
<path d="M538 2153 c7 -3 16 -2 19 1 4 3 -2 6 -13 5 -11 0 -14 -3 -6 -6z"/>
<path d="M603 2149 c15 -9 17 -29 17 -194 l0 -184 -32 -4 c-32 -4 -32 -4 5 -5
l37 -2 0 200 0 200 -22 0 c-21 -1 -21 -2 -5 -11z"/>
<path d="M720 1970 l0 -180 23 4 c12 3 78 10 147 16 69 6 138 14 154 17 l28 5
-6 102 c-4 55 -9 127 -13 159 l-6 57 -163 0 -164 0 0 -180z"/>
<path d="M4773 2081 c-100 -9 -184 -19 -187 -22 -5 -4 23 -88 88 -268 9 -24
16 -45 16 -47 0 -2 -47 -4 -104 -4 l-103 0 -6 -37 c-3 -21 -9 -77 -13 -125 -5
-72 -4 -88 7 -88 8 0 64 7 124 15 161 22 170 21 185 -15 7 -16 14 -30 17 -30
2 0 39 20 81 43 200 113 278 156 295 163 9 3 17 12 17 20 0 8 -29 76 -64 152
-35 75 -76 165 -91 200 -24 54 -31 62 -54 61 -14 -1 -108 -9 -208 -18z"/>
<path d="M3838 1983 c-59 -2 -100 -8 -106 -16 -6 -7 -67 -156 -137 -332 -70
-176 -151 -381 -180 -455 -30 -74 -57 -143 -60 -152 -6 -14 18 -34 116 -98 68
-44 128 -79 134 -77 5 2 13 28 16 58 3 30 15 72 26 94 26 50 90 261 103 335 5
30 18 73 29 95 12 21 21 47 21 57 0 26 16 31 100 29 44 -1 81 3 85 8 3 6 3 56
-1 111 l-7 100 -38 0 -37 0 29 110 c32 123 35 141 17 138 -7 -1 -56 -4 -110
-5z"/>
<path d="M4103 1743 c-10 -3 -12 -32 -11 -106 l2 -102 3 95 c3 58 8 97 16 102
14 9 7 17 -10 11z"/>
<path d="M4320 1739 c0 -5 7 -9 15 -9 12 0 15 -19 15 -114 0 -101 -2 -115 -17
-119 -14 -4 -12 -5 5 -6 22 -1 22 1 22 123 0 115 -1 124 -20 129 -11 3 -20 1
-20 -4z"/>
<path d="M4173 1733 c26 -2 68 -2 95 0 26 2 4 3 -48 3 -52 0 -74 -1 -47 -3z"/>
<path d="M1050 1691 c0 -6 4 -11 9 -11 4 0 11 -37 13 -82 5 -63 15 -106 43
-178 47 -121 58 -159 51 -175 -8 -21 -126 -74 -186 -84 -36 -6 -44 -9 -24 -10
41 -1 130 25 182 55 31 18 42 31 42 49 0 13 -21 79 -46 147 -37 96 -48 141
-53 207 -4 54 -11 86 -18 89 -7 2 -13 -1 -13 -7z"/>
<path d="M973 1683 c15 -2 37 -2 50 0 12 2 0 4 -28 4 -27 0 -38 -2 -22 -4z"/>
<path d="M858 1673 c18 -2 45 -2 60 0 15 2 0 4 -33 4 -33 0 -45 -2 -27 -4z"/>
<path d="M700 1385 c0 -240 2 -285 14 -285 30 0 200 44 184 48 -9 2 -50 -6
-91 -17 -40 -12 -79 -21 -85 -21 -9 0 -12 69 -12 275 l0 274 58 4 57 3 -62 2
-63 2 0 -285z"/>
<path d="M480 1633 c0 -10 11 -67 25 -127 26 -115 56 -191 80 -200 13 -5 15
21 15 169 l0 175 -60 0 c-51 0 -60 -3 -60 -17z"/>
<path d="M5175 1553 c-28 -14 -86 -51 -130 -81 -44 -30 -113 -71 -152 -90 -50
-23 -73 -40 -73 -52 0 -9 31 -107 69 -216 104 -302 104 -317 -2 -327 -68 -6
-140 -30 -171 -56 -27 -23 -56 -90 -56 -133 0 -60 12 -63 285 -64 l240 -1
-235 6 c-163 4 -242 10 -257 19 -30 17 -30 55 2 119 23 45 32 53 83 73 31 12
83 24 115 27 80 8 94 29 78 114 -7 33 -19 79 -28 102 -34 95 -113 330 -113
338 0 5 26 21 57 35 32 13 100 53 153 88 129 85 165 106 181 106 14 0 65 -190
72 -270 l4 -35 1 39 c2 46 -46 255 -62 273 -9 10 -22 7 -61 -14z"/>
<path d="M4100 1505 c0 -8 4 -15 10 -15 5 0 7 7 4 15 -4 8 -8 15 -10 15 -2 0
-4 -7 -4 -15z"/>
<path d="M4173 1493 c26 -2 68 -2 95 0 26 2 4 3 -48 3 -52 0 -74 -1 -47 -3z"/>
<path d="M2678 1278 c-87 -122 -158 -227 -158 -232 0 -3 15 -5 33 -5 23 1 26
3 10 6 -13 2 -23 6 -23 9 0 10 182 264 189 264 6 0 112 -78 134 -99 8 -8 -47
-134 -67 -150 -6 -5 -45 -12 -86 -14 l-75 -3 76 -2 c61 -2 81 2 96 16 25 22
75 136 68 153 -5 12 -124 107 -146 117 -4 2 -27 -25 -51 -60z"/>
<path d="M5302 1180 c0 -14 2 -19 5 -12 2 6 2 18 0 25 -3 6 -5 1 -5 -13z"/>
<path d="M5302 1085 c0 -38 3 -90 7 -115 l8 -45 1 60 c0 33 -3 85 -8 115 l-7
55 -1 -70z"/>
<path d="M1195 1113 c-39 -9 -380 -105 -397 -111 -15 -6 -10 -15 30 -59 l48
-51 55 4 c30 3 140 13 244 24 105 11 207 21 228 22 21 1 40 5 43 9 2 4 -36 33
-84 64 -50 31 -94 67 -100 80 -11 24 -25 28 -67 18z"/>
<path d="M5415 998 c7 -46 55 -418 55 -435 0 -10 33 -13 153 -13 134 0 156 2
169 18 20 21 39 88 31 108 -3 9 -56 39 -117 68 -136 64 -174 97 -232 198 -53
90 -68 105 -59 56z"/>
<path d="M3303 923 c-43 -124 -109 -177 -235 -191 l-63 -7 -3 -77 c-3 -76 -2
-78 20 -77 18 1 19 2 5 6 -15 4 -17 14 -15 71 l3 67 62 7 c106 12 180 61 214
143 12 30 26 54 30 53 4 -2 80 -66 169 -143 89 -77 169 -145 176 -151 8 -6 14
-14 14 -17 0 -4 -60 -8 -132 -10 l-133 -3 148 -2 c82 -1 147 2 145 7 -3 9
-387 341 -394 341 -3 0 -7 -8 -11 -17z"/>
<path d="M2545 919 c-170 -18 -242 -32 -349 -66 l-111 -35 -156 7 c-94 4 -159
3 -163 -3 -4 -7 -36 -245 -36 -276 0 -4 102 -6 228 -4 269 6 294 13 423 104
46 34 109 77 139 97 46 30 170 162 170 181 0 7 -42 6 -145 -5z"/>
<path d="M5323 885 c0 -22 2 -30 4 -17 2 12 2 30 0 40 -3 9 -5 -1 -4 -23z"/>
<path d="M1505 830 c-40 -6 -34 -7 27 -4 53 2 80 0 85 -9 4 -7 11 -46 14 -87
l6 -75 1 77 c3 109 -6 116 -133 98z"/>
<path d="M5331 825 c0 -11 6 -60 14 -110 8 -49 15 -109 15 -132 0 -24 4 -43 9
-43 5 0 6 21 3 48 -7 74 -39 259 -41 237z"/>
<path d="M1085 811 c-74 -6 -95 -14 -95 -36 0 -20 64 -72 129 -105 75 -37 354
-120 400 -119 36 1 36 1 -8 10 -108 21 -312 84 -377 116 -71 34 -134 83 -134
102 0 16 58 23 258 31 l187 7 -145 0 c-80 0 -176 -3 -215 -6z"/>
<path d="M3675 779 c-4 -6 -5 -12 -4 -13 2 -1 53 -42 112 -89 59 -48 112 -87
117 -87 16 0 11 84 -6 108 -8 12 -47 38 -84 57 -69 35 -123 45 -135 24z"/>
<path d="M1621 614 c-1 -34 -14 -49 -46 -57 -15 -4 -14 -5 7 -6 32 -1 51 27
45 67 -4 25 -4 25 -6 -4z"/>
<path d="M3093 583 c9 -2 23 -2 30 0 6 3 -1 5 -18 5 -16 0 -22 -2 -12 -5z"/>
<path d="M3193 583 c32 -2 81 -2 110 0 29 2 3 3 -58 3 -60 0 -84 -1 -52 -3z"/>
<path d="M3378 583 c7 -3 16 -2 19 1 4 3 -2 6 -13 5 -11 0 -14 -3 -6 -6z"/>
<path d="M5313 543 c9 -2 23 -2 30 0 6 3 -1 5 -18 5 -16 0 -22 -2 -12 -5z"/>
</g>
</svg>
